PathFileType	4	(X/Y/Z)	./resultDataOpenSim/trcMotMarkerGrf/sub09/qtm-01-06.trc
DataRate	CameraRate	NumFrames	NumMarkers	Units	OrigDataRate	OrigDataStartFrame	OrigNumFrames
250.000000	250.000000	13	24	m	250.000000	121	482
Frame#	Time	L.Toe.Tip			R.Toe.Tip			L.Ankle.Lat			R.Ankle.Lat			L.Ankle.Med			R.Ankle.Med			L.Heel			R.Heel			L.Knee.Lat			R.Knee.Lat			L.Knee.Med			R.Knee.Med			L.Thigh.Upper			R.Thigh.Upper			L.ASIS			R.ASIS			V.Sacral			L.Acromium			R.Acromium			C7			L.Elbow			R.Elbow			L.Wrist.Lat			R.Wrist.Lat
		X1	Y1	Z1	X2	Y2	Z2	X3	Y3	Z3	X4	Y4	Z4	X5	Y5	Z5	X6	Y6	Z6	X7	Y7	Z7	X8	Y8	Z8	X9	Y9	Z9	X10	Y10	Z10	X11	Y11	Z11	X12	Y12	Z12	X13	Y13	Z13	X14	Y14	Z14	X15	Y15	Z15	X16	Y16	Z16	X17	Y17	Z17	X18	Y18	Z18	X19	Y19	Z19	X20	Y20	Z20	X21	Y21	Z21	X22	Y22	Z22	X23	Y23	Z23	X24	Y24	Z24

121	0.48	-0.17896048	0.10065571	-0.018375034	-0.61819595	0.039302674	0.076613303	-0.32865366	0.097090504	-0.062861925	-0.76637442	0.055886022	0.098932396	-0.31502253	0.11984123	0.033102889	-0.7505833	0.093942066	0.0095374259	-0.386165	0.041125331	-0.017711286	-0.83257595	0.03480745	0.045328985	-0.38941448	0.51215039	-0.090488323	-0.64440683	0.49733634	0.1718734	-0.40034719	0.50473196	0.033293524	-0.65705159	0.49014649	0.042858162	-0.57592677	0.89135447	-0.14023262	-0.61650777	0.90290345	0.22807262	-0.50816839	0.97846869	-0.076274713	-0.51055138	0.98237399	0.16275565	-0.67631081	1.0383215	0.03269726	-0.51149085	1.4289227	-0.13067707	-0.50999828	1.4412479	0.19831407	-0.57649919	1.4868567	0.037380315	-0.67577161	1.0984888	-0.17948071	-0.62716907	1.0963196	0.30373736	-0.55517832	0.86566005	-0.22398469	-0.44181887	0.8915572	0.28319844
122	0.484	-0.16093678	0.10458905	-0.016410442	-0.61819359	0.039112396	0.076599081	-0.31040225	0.097367273	-0.061604143	-0.76633434	0.056069947	0.098755414	-0.29771768	0.12100001	0.034302816	-0.75029121	0.093993618	0.0094343388	-0.36666287	0.040200134	-0.016570227	-0.83249181	0.035006971	0.045115749	-0.38299785	0.51023099	-0.091270273	-0.64196573	0.49685079	0.17191293	-0.39378811	0.50270338	0.032985884	-0.65437372	0.48979268	0.043150565	-0.56895034	0.88979465	-0.14015404	-0.6110708	0.90205071	0.22800145	-0.50132764	0.97697147	-0.075960044	-0.50444768	0.98129227	0.16306291	-0.67049916	1.0370244	0.033763321	-0.50556164	1.4277443	-0.13065874	-0.50418239	1.43995	0.19841775	-0.57068162	1.4856005	0.037471312	-0.67012571	1.0974874	-0.1796579	-0.62087336	1.0949282	0.30427734	-0.54999656	0.86450585	-0.22455745	-0.43509224	0.89061702	0.2829761
123	0.488	-0.14333778	0.10869499	-0.01447246	-0.61818458	0.038939842	0.076621185	-0.29260234	0.097895128	-0.060405496	-0.76630252	0.056222337	0.098611027	-0.28067119	0.12239425	0.03532133	-0.75000044	0.094053571	0.0093381653	-0.34743822	0.03953717	-0.015425072	-0.83240004	0.035227513	0.044879513	-0.37653689	0.50826373	-0.091986396	-0.63952064	0.49635758	0.17200329	-0.38735255	0.50049718	0.032719731	-0.65156068	0.48941979	0.043474393	-0.56186219	0.88814174	-0.14002578	-0.60562093	0.90117623	0.22792699	-0.4944774	0.97541741	-0.07562047	-0.49834096	0.98017283	0.16339107	-0.66536069	1.0359702	0.035518671	-0.49960979	1.4264857	-0.13061904	-0.49835817	1.4386	0.1985276	-0.5648193	1.4842839	0.03752282	-0.66436802	1.0964006	-0.17982059	-0.61454685	1.0934574	0.3047939	-0.54469501	0.86329103	-0.22508332	-0.42838256	0.88959304	0.28278004
124	0.492	-0.12617437	0.11294521	-0.01266466	-0.61816061	0.038828059	0.076689799	-0.27525937	0.098658901	-0.059314932	-0.76628886	0.056362632	0.098501285	-0.26391922	0.12400207	0.036177067	-0.74972118	0.0941096	0.0092323092	-0.32855526	0.039126795	-0.014293051	-0.83231235	0.035462504	0.044626289	-0.37004209	0.50629015	-0.092591507	-0.63708077	0.49585778	0.17216908	-0.38111482	0.49811774	0.032446135	-0.64861819	0.48901181	0.043817212	-0.55476514	0.88638819	-0.13980338	-0.60015867	0.90026939	0.22784917	-0.4876211	0.97381163	-0.075264412	-0.49222623	0.97901844	0.16373933	-0.66047299	1.0349982	0.037289921	-0.49363664	1.4251572	-0.1305793	-0.49254533	1.4372144	0.19864945	-0.55892929	1.4829238	0.037540326	-0.65845551	1.095224	-0.17998141	-0.60818375	1.0919109	0.30528029	-0.53930008	0.86200279	-0.22556806	-0.42169802	0.88848548	0.28260808
125	0.496	-0.10947176	0.11730664	-0.010988811	-0.61812922	0.038759595	0.076782758	-0.25833344	0.099656263	-0.05836709	-0.76629628	0.056514933	0.098423179	-0.24754041	0.12577157	0.03695745	-0.74946103	0.094151103	0.0090924456	-0.31011106	0.038978319	-0.013222232	-0.83223642	0.035707963	0.04436431	-0.36350476	0.50435426	-0.093061267	-0.6346066	0.49533434	0.17238459	-0.37499336	0.49563592	0.032182715	-0.64556616	0.48855515	0.044170714	-0.54773216	0.88454562	-0.13947981	-0.5946834	0.89931929	0.22776732	-0.48077063	0.97215178	-0.074902988	-0.48608154	0.97782801	0.16409525	-0.65513793	1.0337777	0.038299538	-0.48765165	1.4237656	-0.13055967	-0.4867498	1.4357881	0.19877618	-0.55304162	1.4815421	0.037540727	-0.65241578	1.0939533	-0.18016587	-0.60180829	1.0903045	0.30574396	-0.53387483	0.86062309	-0.22603532	-0.41504617	0.88729837	0.28246153
126	0.5	-0.093263649	0.12171758	-0.0093350284	-0.61809783	0.038704075	0.076878145	-0.24178879	0.10087989	-0.057567886	-0.7663184	0.056694262	0.098366321	-0.231631	0.12762645	0.037734233	-0.74922109	0.094170411	0.0088987075	-0.29217731	0.039084956	-0.012347569	-0.83217022	0.035973124	0.044098454	-0.35690934	0.50248284	-0.093383212	-0.63203392	0.49477791	0.1726162	-0.36885651	0.49314809	0.031973661	-0.64244882	0.48804304	0.044499193	-0.5407508	0.88262649	-0.13911062	-0.58918293	0.89831943	0.22768314	-0.47394016	0.97043956	-0.074550136	-0.47989511	0.97659554	0.16444065	-0.64906698	1.0321583	0.038359289	-0.48166157	1.4223156	-0.13055797	-0.48095557	1.4343132	0.19890378	-0.54717767	1.4801538	0.037537738	-0.64634801	1.0925944	-0.18036417	-0.5954572	1.0886564	0.30619855	-0.52845834	0.85914827	-0.22650655	-0.40842745	0.88602965	0.28233774
127	0.504	-0.077564606	0.12609216	-0.0075858262	-0.61806888	0.038644989	0.076965329	-0.22562361	0.10228718	-0.056867352	-0.76634163	0.056903705	0.098314266	-0.21627232	0.12948531	0.038486382	-0.7489811	0.094183257	0.0086742562	-0.2747992	0.039415577	-0.011850414	-0.83210356	0.036276553	0.043827081	-0.35026463	0.50067843	-0.093562379	-0.62929737	0.49420352	0.17285187	-0.36263411	0.49073163	0.031846691	-0.63931991	0.48747917	0.044754398	-0.53380527	0.88062849	-0.13876231	-0.58364207	0.89726691	0.22759577	-0.4671396	0.96868378	-0.074222471	-0.47368155	0.97532032	0.16476381	-0.6424601	1.0302344	0.03781119	-0.47566711	1.42081	-0.13055688	-0.47515501	1.4327866	0.1990332	-0.54132833	1.4787439	0.037530635	-0.64033801	1.0911579	-0.18055203	-0.58917515	1.0869801	0.30666367	-0.52304225	0.85758471	-0.22699194	-0.40183423	0.88467634	0.28223313
128	0.508	-0.06237907	0.13036079	-0.005715839	-0.61804302	0.03858	0.077040402	-0.20987011	0.10380728	-0.056189041	-0.76635335	0.057135775	0.098255364	-0.20150831	0.13127935	0.039146586	-0.74870605	0.0942291	0.0084808139	-0.25800717	0.039917167	-0.011800481	-0.83202629	0.036632645	0.043544277	-0.34359882	0.49893384	-0.093624857	-0.6263583	0.49362274	0.17308655	-0.35633498	0.48843026	0.031796516	-0.63620923	0.48687867	0.044919778	-0.52692865	0.87854806	-0.13846713	-0.57805103	0.89615906	0.22750222	-0.46037199	0.96689577	-0.073933836	-0.46745272	0.9740093	0.16505892	-0.63556211	1.0281406	0.036978921	-0.46967173	1.4192524	-0.13054581	-0.46935067	1.4312105	0.19916142	-0.53546039	1.4772732	0.037505773	-0.63436346	1.0896467	-0.18073376	-0.58297954	1.0852726	0.30714505	-0.51759881	0.85593866	-0.22749184	-0.39525631	0.88324615	0.28214755
129	0.512	-0.047733308	0.13448914	-0.0038207711	-0.61801984	0.038512679	0.077100309	-0.19457956	0.10537329	-0.055499271	-0.7663508	0.057384335	0.098190852	-0.18731306	0.13297139	0.039719504	-0.74837712	0.094335965	0.0083568699	-0.24179919	0.04050698	-0.01202811	-0.83193538	0.037044208	0.043248497	-0.33690333	0.49724988	-0.093614887	-0.62322577	0.4930165	0.17329202	-0.34999245	0.48626111	0.031791442	-0.63308469	0.48627134	0.045026097	-0.52012885	0.87639462	-0.13823915	-0.57239876	0.89499227	0.22740553	-0.45363463	0.96508717	-0.073687651	-0.46119534	0.97266571	0.1653221	-0.6284503	1.025939	0.035950857	-0.46368586	1.4176508	-0.13053127	-0.46353549	1.4295928	0.19927935	-0.52955271	1.4757259	0.037455127	-0.62833089	1.0880605	-0.18093746	-0.5767808	1.0835046	0.30759044	-0.51210752	0.85421769	-0.22800171	-0.38868616	0.88175504	0.28208113
130	0.516	-0.033676271	0.13844665	-0.0020692033	-0.61799615	0.038444171	0.077141481	-0.17982123	0.10691985	-0.054819719	-0.76634265	0.057655028	0.098130014	-0.17361501	0.13454836	0.04028245	-0.74800446	0.094499585	0.0082891184	-0.22617107	0.041092884	-0.012219718	-0.83183543	0.037506882	0.042949263	-0.33008421	0.49564629	-0.093591811	-0.61993543	0.49235618	0.17342993	-0.34361127	0.48422388	0.03179381	-0.62985785	0.48567944	0.045104955	-0.51335298	0.87418735	-0.13809017	-0.56666964	0.89376221	0.22731108	-0.4469244	0.96326894	-0.073479909	-0.4548918	0.97128105	0.16555285	-0.62122954	1.0236757	0.034828856	-0.45770323	1.4160115	-0.13052791	-0.45770028	1.42794	0.19937588	-0.52361321	1.4741203	0.037383668	-0.62218233	1.0864063	-0.18117922	-0.57039818	1.0816392	0.30789975	-0.50656149	0.85243196	-0.22852013	-0.3821257	0.88021175	0.28202937
131	0.52	-0.020253493	0.14216188	-0.00061362266	-0.61796686	0.038371577	0.077161175	-0.16568032	0.10836372	-0.054183455	-0.76634005	0.057958895	0.098080801	-0.16039999	0.13599544	0.040861637	-0.74760886	0.094702243	0.0082424854	-0.21118037	0.041613846	-0.012162236	-0.83173289	0.038016465	0.042662499	-0.32299816	0.49416941	-0.093612399	-0.61649847	0.49163246	0.17349232	-0.3371459	0.48231288	0.031775784	-0.62643807	0.48508219	0.045142436	-0.50654284	0.87194861	-0.13800996	-0.56084278	0.89246362	0.22721753	-0.44024326	0.96144633	-0.073307122	-0.44854267	0.96984046	0.16575128	-0.61421903	1.0214564	0.033956023	-0.4516773	1.4143324	-0.13054969	-0.45183876	1.4262542	0.19944298	-0.51766242	1.4724719	0.037298948	-0.61592411	1.0846944	-0.18145188	-0.56374851	1.0796823	0.30803054	-0.50096215	0.85059144	-0.22904979	-0.37558511	0.87861194	0.28198268
132	0.524	-0.0074902661	0.14551634	0.00045395343	-0.6179284	0.038292344	0.077158407	-0.15224397	0.10961069	-0.053600334	-0.76633948	0.058298461	0.098038897	-0.14773665	0.13729291	0.041394213	-0.74720014	0.094936053	0.0081912982	-0.19693421	0.04204208	-0.011859572	-0.83162999	0.038571998	0.042397718	-0.31554216	0.49287666	-0.093701859	-0.61288863	0.49084558	0.17349925	-0.33050542	0.48053606	0.031731924	-0.6227859	0.48443426	0.045114643	-0.49966279	0.86970008	-0.13795758	-0.55488966	0.89108791	0.22712014	-0.4335969	0.95961305	-0.073168727	-0.44215844	0.96833452	0.16591302	-0.60759123	1.0193596	0.033529299	-0.44555954	1.4126092	-0.1306032	-0.4459431	1.424539	0.199482	-0.5117127	1.4707765	0.037204581	-0.60958659	1.0829319	-0.18173976	-0.55696456	1.0776963	0.30806095	-0.49531168	0.84870317	-0.22959184	-0.36907051	0.87695206	0.28193137
133	0.528	0.0046054224	0.14837661	0.0010957452	-0.61787974	0.038208367	0.077133615	-0.13960479	0.11057134	-0.053056056	-0.76631612	0.058664047	0.097982102	-0.13568624	0.13842097	0.041826599	-0.74677082	0.095207213	0.0081250715	-0.18353185	0.042357163	-0.011431601	-0.83152275	0.039177801	0.042148052	-0.30770903	0.4917912	-0.09383964	-0.60907849	0.48998621	0.1734672	-0.32358015	0.47892526	0.031686749	-0.61894562	0.48370856	0.045041414	-0.49267582	0.86746073	-0.13789194	-0.54879385	0.8896291	0.22702103	-0.42698743	0.95775433	-0.073068218	-0.4357437	0.96676569	0.16603397	-0.60090769	1.0173113	0.033082343	-0.43937259	1.4108472	-0.13067869	-0.44001149	1.4227996	0.19950034	-0.5057613	1.4690289	0.037103589	-0.60319134	1.0811233	-0.18203017	-0.55027629	1.0757465	0.30811615	-0.48960832	0.84677085	-0.23014289	-0.36257704	0.87524139	0.2818758
